<!-- Generated by IcoMoon.io -->
<svg version="1.1" xmlns="http://www.w3.org/2000/svg" width="2404" height="1024" viewBox="0 0 2404 1024">
<title></title>
<g id="icomoon-ignore">
</g>
<path d="M130.449 236.7l-39.691-23.997c-24.865-15.137-42.607-30.008-53.203-44.611-10.463-14.781-15.672-31.744-15.672-50.866 0-28.717 9.928-52.001 29.741-69.921 20.057-17.92 45.946-26.869 77.779-26.869 30.431 0 58.323 8.526 83.723 25.555v59.214c-26.268-25.199-54.517-37.821-84.769-37.821-17.052 0-31.054 4.007-42.006 12.021-10.952 7.814-16.429 17.898-16.429 30.253 0 10.952 4.007 21.215 11.999 30.787 8.014 9.572 20.947 19.545 38.867 29.985l39.914 23.485c44.522 26.424 66.783 60.171 66.783 101.22 0 29.206-9.839 52.959-29.473 71.213-19.478 18.254-44.878 27.381-76.177 27.381-36.018 0-68.786-11.041-98.349-33.124v-66.248c28.16 35.64 60.772 53.471 97.814 53.471 16.362 0 29.919-4.519 40.693-13.579 10.975-9.194 16.451-20.703 16.451-34.415 0-22.261-16.028-43.32-48.017-63.132zM541.83 25.133h52.179v364.433h-52.179v-158.609h-204.8v158.609h-52.157v-364.433h52.179v157.562h204.778v-157.562zM853.571 19.923c56.342 0 103.201 17.809 140.6 53.471 37.576 35.64 56.342 80.362 56.342 134.077 0 53.738-18.944 98.259-56.854 133.565-37.754 35.128-85.393 52.691-142.959 52.691-54.962 0-100.797-17.564-137.483-52.691-36.508-35.306-54.762-79.471-54.762-132.519 0-54.428 18.41-99.484 55.274-135.123 36.909-35.662 83.501-53.471 139.843-53.471zM855.641 69.476c-41.717 0-76.065 13.045-103.023 39.135-26.78 26.090-40.181 59.392-40.181 99.907 0 39.313 13.468 72.014 40.426 98.081 26.958 26.090 60.705 39.135 101.22 39.135 40.693 0 74.618-13.29 101.732-39.914 27.314-26.602 40.96-59.726 40.96-99.395 0-38.6-13.646-71.034-40.96-97.28-27.114-26.446-60.505-39.669-100.174-39.669zM1111.574 389.565v-364.967h115.556c34.794 0 62.531 9.394 83.211 28.182 20.703 18.788 31.054 44.010 31.054 75.665 0 21.215-5.32 39.981-15.917 56.32-10.44 16.064-25.342 28.448-42.948 35.532l-0.617 0.219c-18.432 7.302-44.878 10.952-79.315 10.952h-38.578v158.097h-52.424zM1217.981 71.034h-53.96v114.020h57.121c21.237 0 37.576-4.964 49.063-14.87 11.464-10.106 17.208-24.442 17.208-43.053 0-37.398-23.129-56.097-69.387-56.097zM375.674 910.358c0 31.121-10.685 55.986-32.078 74.596-21.237 18.61-50.977 27.915-89.222 27.915h-208.985v-361.561h174.792c22.595 0 42.251 2.182 58.947 6.522 16.874 4.341 30.431 10.351 40.693 17.987 10.262 7.48 17.92 16.362 22.951 26.624 5.053 10.24 7.569 21.482 7.569 33.636 0 0.090 0.001 0.196 0.001 0.302 0 25.199-10.494 47.948-27.35 64.113l-0.031 0.030c-7.658 7.123-15.405 12.177-23.218 15.137 24.71 9.728 43.475 22.083 56.342 37.042 13.045 14.781 19.567 33.992 19.567 57.656zM248.365 755.4c0-17.408-5.743-28.961-17.208-34.705-11.487-5.743-29.384-8.615-53.738-8.615h-22.995v86.595h23.485c24.865 0 42.785-2.849 53.738-8.593 11.13-5.743 16.696-17.297 16.696-34.682zM266.106 905.906c0-30.943-22.439-46.436-67.295-46.436h-44.366v92.605h44.344c44.856 0 67.295-15.36 67.295-46.169zM826.947 1012.87h-111.638l-29.473-73.305h-157.050l-30.008 73.305h-111.638l159.9-361.561h120.52l159.388 361.561zM660.792 876.7l-52.981-132.007-53.471 132.007h106.451zM1255.29 1012.87h-133.053l-138.24-169.294v169.294h-109.078v-361.561h109.078v161.725l130.938-161.725h118.428l-134.611 169.294 156.538 192.267zM1575.357 1012.87h-272.584v-361.561h268.177v72.526h-159.121v66.248h151.819v72.793h-151.819v77.201h163.551v72.793zM1998.759 1012.87h-117.137l-28.427-64.178c-10.44-23.463-19.812-40.604-28.182-51.378-8.348-10.975-16.518-17.92-24.509-20.881-7.836-3.117-18.009-4.675-30.52-4.675h-12.266v141.112h-109.034v-361.561h185.455c29.919 0 54.45 6.077 73.572 18.254 19.144 12.177 32.879 26.958 41.227 44.344 8.526 17.408 12.778 33.926 12.778 49.575 0 18.254-3.562 33.747-10.685 46.436-6.968 12.511-14.358 21.638-22.194 27.381-7.565 5.571-16.176 11.024-25.162 15.872l-1.173 0.579c11.244 6.437 20.753 14.533 28.55 24.083l0.144 0.182c7.658 9.194 17.987 27.982 31.032 56.32l36.575 78.536zM1850.591 765.551c0-16.696-5.476-28.338-16.451-34.95-10.952-6.611-28.761-9.906-53.471-9.906h-22.951v87.129h23.485c26.602 0 44.767-2.872 54.517-8.615 9.906-5.899 14.87-17.141 14.87-33.636zM2385.363 651.309l-141.646 195.896v165.665h-109.056v-163.573l-144.25-197.988h113.241l82.966 113.753 83.211-113.753h115.556z"></path>
</svg>
