<svg aria-hidden="true" style="position: absolute; width: 0; height: 0; overflow: hidden;" version="1.1" xmlns="http://www.w3.org/2000/svg" xmlns:xlink="http://www.w3.org/1999/xlink">
<defs>
<symbol id="icon-Arrow-1" viewBox="0 0 36 32">
<path d="M1.062 17.414c-0.781-0.781-0.781-2.047 0-2.828l12.728-12.728c0.781-0.781 2.047-0.781 2.828 0s0.781 2.047 0 2.828l-11.314 11.314 11.314 11.314c0.781 0.781 0.781 2.047 0 2.828s-2.047 0.781-2.828 0l-12.728-12.728zM36 18h-33.524v-4h33.524v4z"></path>
</symbol>
<symbol id="icon-facebook" viewBox="0 0 32 32">
<path d="M0.5 16.061c0-8.56 6.94-15.5 15.5-15.5s15.5 6.94 15.5 15.5c0 8.56-6.94 15.5-15.5 15.5s-15.5-6.94-15.5-15.5zM17.616 25.175v-8.433h2.328l0.309-2.906h-2.636l0.004-1.454c0-0.758 0.072-1.164 1.161-1.164h1.455v-2.906h-2.328c-2.797 0-3.781 1.41-3.781 3.78v1.745h-1.743v2.906h1.743v8.433h3.489z"></path>
</symbol>
<symbol id="icon-instagram" viewBox="0 0 32 32">
<path d="M0.25 16c0-8.698 7.052-15.75 15.75-15.75s15.75 7.052 15.75 15.75c0 8.698-7.052 15.75-15.75 15.75s-15.75-7.052-15.75-15.75zM16.001 7.6c-2.281 0-2.568 0.010-3.464 0.051-0.894 0.041-1.505 0.183-2.039 0.39-0.553 0.215-1.021 0.502-1.488 0.969s-0.754 0.936-0.97 1.488c-0.208 0.534-0.35 1.145-0.39 2.039-0.040 0.896-0.051 1.182-0.051 3.464s0.010 2.567 0.051 3.463c0.041 0.894 0.183 1.505 0.39 2.039 0.215 0.553 0.502 1.021 0.969 1.488s0.935 0.755 1.488 0.97c0.534 0.208 1.145 0.349 2.039 0.39 0.896 0.041 1.182 0.051 3.463 0.051s2.567-0.010 3.463-0.051c0.894-0.041 1.505-0.183 2.040-0.39 0.552-0.215 1.020-0.502 1.487-0.97s0.754-0.936 0.97-1.488c0.207-0.534 0.348-1.145 0.39-2.039 0.040-0.896 0.051-1.182 0.051-3.463s-0.010-2.568-0.051-3.464c-0.042-0.894-0.184-1.505-0.39-2.039-0.215-0.552-0.502-1.021-0.97-1.488s-0.934-0.754-1.487-0.969c-0.535-0.208-1.146-0.349-2.041-0.39-0.896-0.041-1.181-0.051-3.463-0.051h0.003z"></path>
<path d="M15.247 9.114c0.224-0 0.473 0 0.754 0 2.243 0 2.509 0.008 3.394 0.048 0.819 0.037 1.264 0.174 1.56 0.289 0.392 0.152 0.671 0.334 0.965 0.628s0.476 0.574 0.629 0.966c0.115 0.296 0.252 0.74 0.289 1.559 0.040 0.885 0.049 1.152 0.049 3.393s-0.009 2.508-0.049 3.393c-0.037 0.819-0.174 1.264-0.289 1.559-0.152 0.392-0.335 0.671-0.629 0.965s-0.573 0.476-0.965 0.628c-0.296 0.115-0.741 0.252-1.56 0.29-0.886 0.040-1.152 0.049-3.394 0.049s-2.509-0.009-3.394-0.049c-0.819-0.038-1.264-0.175-1.56-0.29-0.392-0.152-0.672-0.334-0.966-0.628s-0.476-0.573-0.629-0.965c-0.115-0.296-0.252-0.74-0.289-1.559-0.040-0.886-0.048-1.152-0.048-3.395s0.008-2.508 0.048-3.393c0.037-0.819 0.174-1.264 0.289-1.56 0.152-0.392 0.335-0.672 0.629-0.966s0.574-0.476 0.966-0.629c0.296-0.116 0.741-0.252 1.56-0.29 0.775-0.035 1.075-0.045 2.641-0.047v0.002zM20.484 10.509c-0.556 0-1.008 0.451-1.008 1.008s0.452 1.008 1.008 1.008c0.557 0 1.008-0.452 1.008-1.008s-0.451-1.008-1.008-1.008zM16 11.687c-2.382 0-4.314 1.932-4.314 4.314s1.931 4.313 4.314 4.313c2.382 0 4.313-1.931 4.313-4.313s-1.931-4.314-4.313-4.314z"></path>
<path d="M16.001 13.2c1.546 0 2.8 1.254 2.8 2.8s-1.254 2.8-2.8 2.8c-1.547 0-2.8-1.254-2.8-2.8s1.254-2.8 2.8-2.8z"></path>
</symbol>
<symbol id="icon-left-arrow" viewBox="0 0 32 32">
<path d="M0 16c0 8.837 7.163 16 16 16s16-7.163 16-16c0-8.837-7.163-16-16-16s-16 7.163-16 16z"></path>
<path stroke-linejoin="miter" stroke-linecap="butt" stroke-miterlimit="4" stroke-width="0.5587" d="M0.279 16c0 8.682 7.038 15.721 15.721 15.721s15.721-7.038 15.721-15.721c0-8.682-7.038-15.721-15.721-15.721s-15.721 7.038-15.721 15.721z"></path>
<path d="M9.841 16.514c-0.284-0.284-0.284-0.745 0-1.028l4.628-4.628c0.284-0.284 0.745-0.284 1.029 0s0.284 0.745 0 1.028l-4.114 4.114 4.114 4.114c0.284 0.284 0.284 0.744 0 1.029s-0.745 0.284-1.029 0l-4.628-4.628zM22.545 16.727h-12.19v-1.455h12.19v1.455z"></path>
</symbol>
<symbol id="icon-menu" viewBox="0 0 20 20">
<path d="M0 3h20v2h-20v-2zM0 9h20v2h-20v-2zM0 15h20v2h-20v-2z"></path>
</symbol>
<symbol id="icon-close" viewBox="0 0 20 20">
<path d="M10 8.586l-7.071-7.071-1.414 1.414 7.071 7.071-7.071 7.071 1.414 1.414 7.071-7.071 7.071 7.071 1.414-1.414-7.071-7.071 7.071-7.071-1.414-1.414-7.071 7.071z"></path>
</symbol>
</defs>
</svg>
